<svg width="256" height="256" viewBox="0 0 256 256" xmlns="http://www.w3.org/2000/svg">
  <defs>
    <linearGradient id="bg" x1="24" y1="24" x2="232" y2="232" gradientUnits="userSpaceOnUse">
      <stop offset="0" stop-color="#ff8a00"/>
      <stop offset="1" stop-color="#f05a28"/>
    </linearGradient>
    <linearGradient id="panel" x1="44" y1="34" x2="212" y2="220" gradientUnits="userSpaceOnUse">
      <stop offset="0" stop-color="#0f3d6e"/>
      <stop offset="1" stop-color="#123d67"/>
    </linearGradient>
  </defs>
  <rect x="20" y="20" width="216" height="216" rx="52" fill="url(#bg)"/>
  <path d="M58 72c0-13 10-24 24-24h92c17 0 30 13 30 30v10H58V72z" fill="#0d2d52" opacity=".95"/>
  <rect x="58" y="84" width="140" height="110" rx="28" fill="url(#panel)"/>
  <path d="M86 108h24v50c0 10 8 18 18 18s18-8 18-18v-50h24v50c0 23-19 42-42 42s-42-19-42-42v-50z" fill="#fff"/>
  <path d="M122 106h66v22h-66z" fill="#ffcf7a"/>
  <path d="M126 142h58v16h-58z" fill="#8fd4ff"/>
  <circle cx="178" cy="166" r="14" fill="#f6b14b"/>
</svg>
