<svg width="960" height="320" viewBox="0 0 960 320" xmlns="http://www.w3.org/2000/svg">
  <defs>
    <linearGradient id="orange" x1="84" y1="74" x2="242" y2="232" gradientUnits="userSpaceOnUse">
      <stop offset="0" stop-color="#ffcf3a"/>
      <stop offset="0.48" stop-color="#ff9800"/>
      <stop offset="1" stop-color="#f05a28"/>
    </linearGradient>
    <linearGradient id="blue" x1="188" y1="58" x2="362" y2="236" gradientUnits="userSpaceOnUse">
      <stop offset="0" stop-color="#2c8cff"/>
      <stop offset="1" stop-color="#1548b7"/>
    </linearGradient>
    <linearGradient id="whiteFold" x1="188" y1="84" x2="256" y2="220" gradientUnits="userSpaceOnUse">
      <stop offset="0" stop-color="#ffffff"/>
      <stop offset="1" stop-color="#dfe9f8"/>
    </linearGradient>
  </defs>
  <rect width="960" height="320" rx="40" fill="transparent"/>
  <g transform="translate(44 42)">
    <rect x="0" y="0" width="252" height="236" rx="54" fill="#ffffff" stroke="#dfe7f3" stroke-width="2"/>
    <path d="M48 76c0-20 16-36 36-36h130c-6 12-10 30-13 46h-52c-31 0-44 9-44 26 0 14 11 24 32 24h34c22 0 36 8 43 20 6 10 7 23 2 36-9 29-34 44-78 44H40v-41h97c17 0 29-8 32-20 4-10-4-18-22-18h-37c-46 0-70-25-62-81z" fill="url(#orange)"/>
    <path d="M200 36h152l-18 46h-54l-46 154h-53l44-154h-44l19-46z" fill="url(#blue)"/>
    <path d="M176 36h37c14 0 26 9 31 22 4 11 3 24-3 37l-36 84c-6 16-19 31-36 43h-40l44-68c16-25 29-65 3-118z" fill="url(#whiteFold)"/>
    <rect x="224" y="98" width="14" height="14" rx="3" fill="#2d86ff"/>
    <rect x="242" y="112" width="14" height="14" rx="3" fill="#2d86ff"/>
    <rect x="224" y="130" width="14" height="14" rx="3" fill="#2d86ff"/>
    <rect x="242" y="148" width="14" height="14" rx="3" fill="#2d86ff"/>
    <rect x="224" y="164" width="14" height="14" rx="3" fill="#2d86ff"/>
  </g>
  <g transform="translate(344 72)">
    <text x="0" y="70" fill="#f5821f" font-family="Segoe UI, Arial, sans-serif" font-size="72" font-weight="900" letter-spacing="1">3T</text>
    <text x="122" y="70" fill="#1d2b59" font-family="Segoe UI, Arial, sans-serif" font-size="72" font-weight="700" letter-spacing="12">READER</text>
    <text x="0" y="128" fill="#4e5d78" font-family="Segoe UI, Arial, sans-serif" font-size="30" font-weight="500" letter-spacing="4">ĐỌC MỌI LÚC · HIỂU MỌI NƠI</text>
    <line x1="0" y1="144" x2="72" y2="144" stroke="#f5821f" stroke-width="7" stroke-linecap="round"/>
    <line x1="372" y1="144" x2="440" y2="144" stroke="#f5821f" stroke-width="7" stroke-linecap="round"/>
  </g>
</svg>
